<?xml version="1.0" encoding="UTF-8"?>
<!DOCTYPE svg PUBLIC "-//W3C//DTD SVG 1.1//EN" "http://www.w3.org/Graphics/SVG/1.1/DTD/svg11.dtd">
<!-- Creator: CorelDRAW 2021 (64-Bit) -->
<svg xmlns="http://www.w3.org/2000/svg" xml:space="preserve" width="297mm" height="210mm" version="1.1" style="shape-rendering:geometricPrecision; text-rendering:geometricPrecision; image-rendering:optimizeQuality; fill-rule:evenodd; clip-rule:evenodd"
viewBox="0 0 29700 21000"
 xmlns:xlink="http://www.w3.org/1999/xlink"
 xmlns:xodm="http://www.corel.com/coreldraw/odm/2003">
 <defs>
  <style type="text/css">
   <![CDATA[
    .fil0 {fill:white}
   ]]>
  </style>
 </defs>
 <g id="Layer_x0020_1">
  <metadata id="CorelCorpID_0Corel-Layer"/>
  <g id="_2739447529408">
   <path class="fil0" d="M17688.99 2665.49c0,367.75 -79.76,291.24 357.41,291.24 0,791.83 44.64,1634.4 -124.67,2403.72 -116.22,528.01 -376.27,975.36 -701.78,1389.77 -130.13,165.67 -242.79,298.22 -406.35,427.62 -531.87,420.77 -1244.16,584.17 -1930.99,584.17 -164.68,0 -329.71,-31.63 -466.63,-49.64 -126.31,-16.64 -250.05,7.32 -376.97,-20.17 -348.74,-75.53 -102.76,104.99 40.32,171.48 219.88,102.19 883.88,215.11 1132.13,257.83 113.14,19.46 198.79,14.25 395.96,54.12 126.3,25.54 256.16,56.99 376.44,86.87 245.8,61.07 478.45,117.67 699.17,227.48 184.52,91.79 355.1,267.67 499.55,413.84 176.63,178.71 173.22,132.32 316.91,371.46 32.71,54.44 55.07,96.06 87.78,150.5 485.15,807.22 472.36,1816.69 472.38,2744.37 0,167.6 -13.26,285.15 -13.25,450.08 0.02,163.26 21.03,806.11 -13.55,899.83 -22.95,62.19 -67.69,67.98 -137.62,87.44 -69.77,19.41 -122.92,35.76 -181.46,56.81 -325.3,116.95 -647.39,272.41 -965.03,411.7 -218.37,95.76 -1083.86,489.25 -1306.76,533.28 -575.36,113.62 -837.74,102.48 -1419.83,102.48 -262.01,0 -1372.89,-287.76 -1614.99,-344.17 2.07,93.03 97.93,109.21 194.33,163.09l461.97 252.86c697.92,410.27 1257.01,956.6 2049.17,1220.54 188.51,62.79 369.97,109.52 576.06,152.02 60.79,12.54 87.79,7.39 159.66,12.43 166.3,11.63 260.61,52.34 503.64,52.34 211.35,0 426.93,1.78 634.69,-13.96l329.86 -40.79c192.25,-18.92 404.64,-98.03 589.02,-152.29 787.44,-231.71 1638.26,-750.93 2409.75,-926.14 652.12,-148.11 1356.42,-165.81 2010.16,-35.05 71.11,14.23 144.06,24.61 207.03,44.5 61.68,19.48 142.24,45.1 202.84,61.91 79.48,22.03 344.6,121.94 407.56,121.94 22.42,0 49.47,-17.62 66.19,-26.47 -18.78,-28.05 -45.1,-61.92 -69.58,-89.26l-159.04 -171.92c-79.03,-82.12 -156.49,-185.69 -245.97,-257.06 -72.41,-57.77 -111.34,-110.52 -177.96,-166.22 -299.39,-250.28 -457.34,-374.7 -782.65,-567.59 -141.75,-84.04 -293.15,-147.52 -440.19,-221.69 -144.11,-72.69 -327.23,-140.61 -482.53,-192.58 -168.98,-56.57 -366.81,-89.95 -543.76,-131.38 -185.93,-43.53 -383.71,-78.97 -579.82,-95.3 22.14,-33.05 262.2,-141.6 335.29,-180.97 45.09,-24.3 77.51,-38.68 123.61,-61.71 225.16,-112.4 436.28,-259.03 637.82,-407.97l302.5 -226.99c84.93,-71.85 243.93,-167.59 268.72,-274.03 -119.84,-27.91 -210.73,-25.81 -357.87,-26.02 -79.53,-0.11 -95.98,-13.29 -171.11,-14.23 -421.69,-5.2 -821.19,13.78 -1244.86,13.78 0,-146.45 -39.71,-288.36 -39.71,-436.84 41.4,3.44 47.02,13.22 92.65,13.22 309.76,0 2196.99,26.1 2502.11,-26.29 82.64,-14.19 165.62,-32.92 240.64,-50.58 161.69,-38.09 309.3,-68.72 460.43,-135.26 73.63,-32.41 122.5,-58.31 194.5,-96.72 175.52,-93.65 404.29,-207.37 556.4,-330.52 53.68,-43.45 112.51,-84.81 159.59,-131.65l146.89 -144.34c44.53,-55.9 102.38,-98.86 150.8,-153.66l126.68 -164.55c43.85,-64.66 76.06,-117.93 117.45,-187.02 288.79,-481.95 282.69,-472.38 -88.5,-472.38l-5175.91 0c-24.09,-103.37 -202.74,-362.63 -264.81,-450.04 -123.14,-173.43 -256.93,-342.83 -407.21,-492.94 -37.62,-37.59 -48.11,-61.89 -85.59,-99.76 -172.86,-174.72 -528.84,-443.8 -579.4,-519.31 87.4,-58.52 326.63,-269.83 420.14,-360.87 60.5,-58.9 120.52,-104.09 173.58,-170.61l216.83 -233.26c466.41,-471.4 820.09,-1159.48 906.46,-1820.5 9.71,-74.34 12.46,-126.73 22.79,-202.24 38.26,-279.11 56.37,-540.19 94.56,-818.85 38.7,-282.3 -5.09,-1649.79 35.29,-1712.08 62.42,-96.31 341.05,8.58 341.05,-69.33l0 -317.7 -2184.23 0c-30.86,0 -66.18,35.32 -66.18,66.18z"/>
   <path class="fil0" d="M10395.03 2731.69c0,256.45 11.76,225.04 357.42,225.04 0,767.9 -61.82,1884.5 82.68,2604.57 101.67,506.64 378.19,1193.5 681.25,1595.63 365.01,484.35 210.88,315.67 702.15,806.94 67.2,67.22 124.84,125.47 204.4,179.49 72.71,49.38 163.4,106.12 209.27,174.63 -86.09,99.05 -242.36,209.28 -373.96,340.86 -353.21,353.21 -480.96,455.79 -751.18,863.82 -59.84,90.32 -189.23,247 -211.86,344.13 -794.26,0 -1588.52,0 -2382.77,0 -408.23,0 -772.05,13.24 -1178.17,13.24 -210.79,0 -373.58,-13.24 -582.45,-13.24l-1204.63 0c-235.55,0 -85.99,194.67 -31.02,295.78 40.51,74.55 82.04,136.29 124.29,206.65 38.8,64.63 88.08,131.77 135.39,195.54l486.18 506.66c33.61,25.75 50.78,50.17 85,73.84l413.69 261.43c40.71,22.61 72.51,36.34 114.65,57.45 268,134.19 768.63,280.21 1054.96,282.04l317.34 13.58c365.03,0 831.08,24.86 1205.07,13.68 68.98,-2.06 90.23,-14.32 171.35,-13.97 123.64,0.5 247.31,0.29 370.95,0.29 61.92,0 123.93,0.55 185.79,0.47 79.85,-0.12 96.14,-13.69 171.63,-13.69 29.94,128.47 -25.94,355.19 13.24,436.84 -259.7,0 -1611.3,-18.47 -1747.37,13.24 -3.48,40.98 0.16,25.02 -13.24,52.94 41.1,61.39 516.72,434.28 586.09,486.17 272.93,204.15 596.56,376.53 900.94,528.72 65.87,32.94 183.82,108.61 260.34,110.32 0,117.48 -6.63,477.33 8.29,574.18 18.29,118.86 21.54,73.94 293.89,103.24 125.87,13.54 327.97,45.37 441.84,74.42 143.22,36.54 272.52,71.2 407.72,108.55 128.95,35.65 300.35,110.04 410.31,119.19 0,-191.41 12.18,-893.86 -7.65,-1024.88 -27.25,-180.03 -0.56,-1285.15 30.55,-1520.33 19.17,-144.91 -22.51,-216.25 43,-486.5 106.61,-439.86 409.42,-1041.31 724.99,-1353.32 95.22,-94.15 173.21,-154.22 277.17,-239.11 101.97,-83.24 200,-142.92 316.1,-213.38 227.32,-137.98 465.66,-225.38 749.63,-296.16 621.07,-154.79 1391.57,-136.32 1996.46,23.84l468.21 127.49c137.3,42.62 621.96,351.16 344.8,-53.58 -134.98,-197.11 -435.88,-484.44 -640.82,-590.27 -662.85,-342.3 -853.72,-344.6 -1675.71,-482.03 -189.31,-31.64 -334.64,-55.41 -504.01,-104.92 -476.89,-139.38 -660.22,-135.14 -1098.15,-437.43 -40.71,-28.09 -52.95,-39.1 -90.48,-68.37 -270.42,-210.93 -446.28,-487.69 -594.5,-795.46 -66.04,-137.12 -79.02,-207.07 -119.37,-330.7l-98.55 -364.78c-112.06,-450.8 -148.14,-887.86 -148.14,-1400.66l0 -1734.13c0,-63.79 149.69,-66.2 198.56,-66.2 184.46,0 158.85,125.68 158.85,-344.17l-582.43 -26.49c-165.78,0.38 -468.32,16.88 -616.62,-5.58 -98.31,-14.87 -799.52,3.79 -883.42,14.67 -116.78,15.15 -167.94,15.04 -167.94,149.78z"/>
   <path class="fil0" d="M7019.43 15889.94c112.12,-2.51 399.88,-75.32 532.72,-102.7 78.64,-16.21 109.43,-9.38 193.39,-18.41 99.73,-10.74 494.99,-52.51 574.8,-41.72 482.78,65.29 412.71,-3.78 949.5,123.11 249.93,59.09 597.23,133.85 829.72,242.53 412.53,192.81 558.94,253.26 962.76,533.09 664.53,460.47 910.07,617.63 1703.79,851.08 231.76,68.15 477.12,119.19 715.6,144.84 461.94,49.72 404.45,15.28 805.21,15.55 383.88,0.26 417.48,-29.88 757.76,-102.68 461.13,-98.66 545.31,-103.61 984.01,-286.81 454.34,-189.71 803.36,-460.43 1189.73,-742.96 48.59,-35.54 80.71,-66.64 86.68,-138.37 -154,0 -457.34,66.18 -701.61,66.18 -743.49,0 -1208.22,-49.06 -1878.2,-292.75 -245.17,-89.18 -461.69,-193.76 -676.09,-316.75 -52.34,-30.03 -103.56,-61.18 -158.76,-92.74l-577.6 -415.22c-289.98,-217.94 -449.85,-308.06 -782.19,-462.16 -220.67,-102.33 -150.17,-63.48 -366.88,-136.15l-759.04 -233.77 -440.04 -63.01c-82.19,-2.36 -167.38,7.57 -248.37,-3.14 -284.22,-37.61 -658.03,-29.9 -931.01,29.27 -57.41,12.44 -76.98,9.44 -142.9,15.94 -92.56,9.12 -162.92,43.81 -248.66,69.03 -167.62,49.33 -313.4,102.93 -469.66,152.52 -281.82,89.45 -422.96,118.94 -678.15,248.47 -142.77,72.46 -478.62,280.06 -583.44,356.43l-177.93 126.55c-62.9,47.08 -114.49,92.69 -175.87,141.83 -29.41,23.53 -46.69,44.15 -73.96,71.65 -67.54,68.11 -205.27,140.67 -215.31,261.27z"/>
   <path class="fil0" d="M2902.53 5339.5c0,118.8 196.47,418.51 256.98,510.82 103.01,157.21 157.05,244.18 295.29,366.59 22.36,19.79 29.82,35.27 46.02,59.88 78.2,118.89 286.82,280.01 407.71,360.06l360.03 222.44c162.82,98.99 515.99,224.64 702.25,264.11 239.45,50.73 423.25,56.14 711.62,56.14l2316.6 0c268.11,0 494.1,13.25 754.54,13.25l1714.02 -20.14c122.69,-18.59 136.42,-19.84 58.04,-123.6l-254.15 -421.06c-44.76,-89.83 -84.66,-170.04 -128.02,-255.89l-213.52 -554.26c-30.77,-92.95 -64.34,-192.17 -90.98,-292.9 -18.84,-71.24 -56.43,-264.86 -132.28,-264.86l-6698.26 0c-51.59,0 -105.89,28.25 -105.89,79.42z"/>
   <path class="fil0" d="M19912.91 7153.07l5136.21 0c205.98,0 657.58,-141.82 846.88,-225.38 194.28,-85.77 539.86,-253.77 685.59,-399.89 50.13,-50.27 89.23,-75.66 138.86,-125.91 47.06,-47.64 84.77,-88.2 141.26,-123.49l25.08 -14.63c2.34,-1.58 5.69,-3.63 7.94,-5.29 2.23,-1.64 5.36,-4 7.5,-5.73 19.89,-16.2 7.59,-9.28 33.27,-32.92 202.06,-185.91 270.54,-322.64 406.31,-546.82 47.56,-78.5 156.29,-276.08 156.29,-386.45 -57.18,-1.28 -63.01,-12.97 -131.85,-13.77 -51.1,-0.58 -107.15,4.25 -157.45,-1.41 -95.17,-10.68 -192.52,-11.3 -306.39,-11.3l-6102.57 0c-148.52,0 -195.83,40.18 -212.29,145.12 -58.21,370.91 -337.88,1001.21 -524.75,1315.3 -107.86,181.29 -327.21,432.57 -149.89,432.57z"/>
   <path class="fil0" d="M9892.01 7616.38l-5943.72 0c1.78,79.93 50.25,169.68 79.26,225.23 32.91,63.04 72.14,128.33 111.65,192.81 135.36,220.87 368.39,518.46 563.64,667.46 102.24,78.02 89.31,90.41 256.93,206.39 37.41,25.9 53.63,40.55 92.46,66.39 626.28,416.5 1153.88,508.25 1967.2,508.25l3190.28 0c116.12,0 195.69,-8.62 305.02,-12.68 95.41,-3.55 117.66,-57.99 186.51,-144.44 49.38,-62.01 88.58,-113.98 138.08,-179.63 101.64,-134.77 243.15,-281.04 297.03,-351.61 113.7,-148.99 267.05,-283.3 406.75,-400.75 31.44,-26.43 58.63,-60.42 69.81,-102.3 -21.3,-29.06 -123.74,-100.48 -160.86,-130.36 -121.9,-98.16 -337.37,-337.09 -451.1,-462.31 -151.67,-167.02 -523.07,-82.27 -804.47,-82.45 -101.5,-0.04 -202.99,0 -304.47,0z"/>
   <path class="fil0" d="M18761.24 8304.75c0,47.22 67.38,92.29 88.58,109.97l113.45 98.36c27.02,26.22 54.93,47.36 76.6,69.03 126.05,126.07 358.51,367.64 462.53,503.81l185.48 238.14c36.65,49.04 79.11,132.36 158.85,132.36 352.49,0 3530.82,17.8 3698.88,-7.64 295.38,-44.72 410.1,67.49 915.61,-77.22 92.1,-26.38 162.54,-53.3 248.61,-82.35 269.77,-91.03 655.98,-297.46 858.75,-478.25 144.22,-128.58 381.11,-352.68 498.07,-507.98 126.18,-167.51 372.43,-506.95 372.43,-686.6l-7055.66 0c-19.91,85.4 -239.05,285.42 -301.17,347.49 -74.75,74.69 -179.45,202.68 -239.63,250.16 -26.3,20.77 -81.38,50.16 -81.38,90.72z"/>
   <path class="fil0" d="M20746.88 4889.43c29.69,6.91 30.44,13.23 66.2,13.23l4699.37 0c136.89,0 339.13,-51.44 457.73,-85.01 355.62,-100.64 458.11,-147.39 768.82,-316.65 118.22,-64.4 221.36,-138.54 326.07,-216.69 261.17,-194.9 586.47,-578.84 761.57,-866.66 36.74,-60.42 174.49,-325.63 174.49,-394.74 0,-77.11 -129.84,-66.54 -211.77,-66.21l-860.48 13.27c-554.06,0 -3629.56,-13.18 -3739.09,7.18 -752.6,139.9 -1184.69,250.33 -1771.09,836.72 -256.47,256.48 -321.75,344.21 -508.79,656.12 -70.44,117.49 -163.03,273.23 -163.03,419.44z"/>
   <path class="fil0" d="M2386.26 3009.68c0,145.02 115.37,292.13 187.92,407.78 241.64,385.23 207.49,351.66 497.13,641.3 55.61,55.63 89.52,91.01 150.77,140.45l162.66 128.58c57.46,43.17 103.59,76.38 163.83,114.15 153.47,96.24 409.21,232.79 580.1,293.6 103.3,36.74 567.59,161.48 693.07,167.37 97.49,4.58 189.87,-6.82 283.82,7.41 142.02,21.5 429.94,12.96 554.02,-4.03 117.87,-16.17 3194.09,-3.64 3729.4,-3.63 313.39,0.02 324.83,57.76 79.52,-436.93 -70.53,-142.22 -141.48,-227.71 -232.71,-349.74 -39.82,-53.26 -77.46,-111.45 -121.22,-156.78 -50.53,-52.31 -94.43,-93.89 -145.89,-145.34 -327.15,-327.15 -599.02,-496.38 -1058.38,-675.76 -304.46,-118.89 -564.99,-168.14 -983.52,-168.14l-4024.25 0c-96.81,0 -195.2,1.83 -291.77,0.52 -62.8,-0.85 -224.5,-40.05 -224.5,39.19z"/>
   <path class="fil0" d="M12976.39 13877.8c0,530.5 -62.54,446.37 206.51,508.33 46.28,10.66 77.08,13.16 122.78,22.84 202.96,42.92 169.39,31.16 399.52,63.79 295.16,41.84 652.61,36.29 951.3,12.92l662.95 -118.06c134.68,-33.92 287.52,-62.67 412.05,-104.24 652.46,-217.81 881.17,-444.71 1401.68,-676.62 307.65,-137.08 476.05,-95.25 -13.39,-1006.27 -123.68,-230.23 -463.46,-564.54 -679.59,-670.65 -68.32,-33.55 -115.13,-64.54 -180.97,-97.02l-520.52 -286.96c-33.76,-18.12 -57.84,-27.3 -87.73,-44.66l-264.81 -145.56c-248.69,-143.29 -193.31,-124.51 -580.5,108.93 -366.81,221.19 -821.64,417.41 -1117.54,709.25l-152.71 151.77c-361.7,363.44 -559.03,1038.56 -559.03,1572.21z"/>
   <path class="fil0" d="M12989.62 4214.31c-40.09,83.54 -26.47,274.54 -26.47,383.89 0,305.99 125.64,749.11 221.15,970.23 74.9,173.39 225.38,396.26 357.8,529.14 93.68,94 377.88,309.06 506.35,393.8l948.84 547.02c71.83,36.41 128.38,73.56 189.78,114.68 78.72,-18.34 133.32,-60.54 198.57,-92.67l196.03 -108.43c127.41,-76.94 248.77,-142.93 375.58,-220.11l375.91 -219.78c149.51,-91.02 226.01,-163.8 349.79,-259.15 214.55,-165.23 409.08,-430.44 525.15,-679.48 182.65,-391.86 216.14,-819.51 216.14,-1266.48 0,-127.21 -371.52,4.06 -410.19,13.43 -328.99,79.56 -757.31,105.71 -1112.15,105.71 -352.24,0 -1300.42,-251.51 -1879.75,-251.51 -256.26,0 -526.73,-13.43 -771.84,22.42 -98.01,14.32 -149.15,17.29 -260.69,17.29z"/>
   <path class="fil0" d="M10408.27 1685.91l0 675.12c0,30.99 21.97,52.96 52.96,52.96l9478.17 0 0 -767.79 -9491.41 0 -1.41 0c-29.38,0.3 -38.31,9.68 -38.31,39.71z"/>
   <path class="fil0" d="M15120.89 17782.93c8.8,105.88 136.52,140.7 260.23,203.07 286.24,144.32 796.16,273.49 1142.95,273.49 607.89,0 1001.23,-63.59 1500.27,-313.3 84.1,-42.09 177.35,-81.54 252.62,-131.27l235.84 -161.31c71.49,-63.12 140.02,-121.08 216.38,-180.74l311.91 -270.55c292.2,-236.05 509.68,-377.41 886.6,-503.35 574.13,-191.83 746.3,-186.87 1401.66,-186.87 -34.13,-71.12 -7.71,-57.29 -151.46,-153.02l-391.23 -217.69c-74.53,-37.43 -144.92,-60.82 -225.08,-92.62 -154.38,-61.22 -309.58,-92.96 -487.17,-135.01 -351.6,-83.24 -642.29,-98.39 -997.42,-39.01 -541.76,90.58 -830.47,175.71 -1287.58,473.01 -207.91,135.23 -265.08,203.27 -435.26,345.77 -45.66,38.21 -62.86,50.5 -105.32,93.25 -403.62,406.27 -937.55,689.61 -1480.87,862.2 -316.61,100.58 -389.69,73.97 -647.07,133.95z"/>
   <path class="fil0" d="M8568.24 19159.64l397.13 0c-8.01,-29.99 -12.73,-52.96 -52.94,-52.96l-225.05 0c-64.66,0 -93,13.93 -119.14,52.96z"/>
   <path class="fil0" d="M16563.78 19159.64l277.99 0 0 -26.47c-74.37,-1.66 -73.65,-26.49 -145.61,-26.49l-39.71 0c-53.88,0 -71.2,20.91 -92.67,52.96z"/>
  </g>
 </g>
</svg>
